<?xml version="1.0" encoding="UTF-8" standalone="no"?>
<svg
   version="1.1"
   id="svg1"
   width="50"
   height="120.75"
   viewBox="0 0 50 120.75"
   sodipodi:docname="wp-08.svg"
   inkscape:version="1.4.3 (fcd0343856, 2026-01-01)"
   xmlns:inkscape="http://www.inkscape.org/namespaces/inkscape"
   xmlns:sodipodi="http://sodipodi.sourceforge.net/DTD/sodipodi-0.dtd"
   xmlns="http://www.w3.org/2000/svg"
   xmlns:svg="http://www.w3.org/2000/svg">
  <sodipodi:namedview
     id="namedview1"
     pagecolor="#ffffff"
     bordercolor="#000000"
     borderopacity="0.25"
     inkscape:showpageshadow="2"
     inkscape:pageopacity="0.0"
     inkscape:pagecheckerboard="0"
     inkscape:deskcolor="#d1d1d1"
     inkscape:zoom="7.6438923"
     inkscape:cx="12.428223"
     inkscape:cy="65.084642"
     inkscape:window-width="1854"
     inkscape:window-height="1131"
     inkscape:window-x="66"
     inkscape:window-y="32"
     inkscape:window-maximized="1"
     inkscape:current-layer="svg1" />
  <defs
     id="defs1" />
  <g
     id="layer3"
     transform="translate(-65,-10)">
    <circle
       id="path2"
       style="fill:#b3b3b3;stroke-linecap:round"
       cx="70"
       cy="70"
       r="5" />
  </g>
  <g
     id="layer1"
     transform="matrix(0.5,0,0,1,-30,-10)">
    <path
       id="big_outside"
       style="fill:#b3b3b3;stroke-linecap:round"
       d="M 70,66.5 L 66,62.5 V 20 l 4,-10 4,10 V 62.5 Z" />
    <path
       id="big_inside"
       style="fill:#999999;stroke-linecap:round"
       d="M 70,66.5 68.046253,62.395486 68,20 l 2,-5 2,5 0.04625,42.441739 z"
       sodipodi:nodetypes="ccccccc" />
  </g>
  <g
     id="layer2"
     transform="matrix(1,0,0,0.5,-65,25)">
    <path
       id="small_outside"
       style="fill:#b3b3b3;stroke-linecap:round"
       d="M 73.5,70 L 79.5,64 H 103 l 12,6 -12,6 H 79.5 Z" />
    <path
       id="small_inside"
       style="fill:#999999;stroke-width:0.707107;stroke-linecap:round"
       d="M 73.5,70 L 77.5,68 H 103 l 8,2 -8,2 H 77.5 Z" />
  </g>
  <g
     id="layer4"
     transform="translate(-65,-10)">
    <path
       id="second"
       style="fill:none;stroke:#000000;stroke-width:1.5;stroke-linecap:round"
       d="M 70,73.5 V 130" />
  </g>
</svg>
